<?xml version="1.0" standalone="no"?>
<!DOCTYPE svg PUBLIC "-//W3C//DTD SVG 20010904//EN"
 "http://www.w3.org/TR/2001/REC-SVG-20010904/DTD/svg10.dtd">
<svg version="1.0" xmlns="http://www.w3.org/2000/svg"
 width="512.000000pt" height="512.000000pt" viewBox="0 0 512.000000 512.000000"
 preserveAspectRatio="xMidYMid meet">
<metadata>
Created by potrace 1.14, written by Peter Selinger 2001-2017
</metadata>
<g transform="translate(0.000000,512.000000) scale(0.100000,-0.100000)"
fill="#000000" stroke="none">
<path d="M2000 4714 c-14 -6 -36 -15 -50 -19 -23 -7 -24 -7 -10 11 15 18 14
18 -14 0 -20 -13 -28 -14 -24 -5 4 9 -2 14 -17 14 -12 0 -21 -5 -18 -11 2 -6
-9 -10 -27 -10 -16 0 -30 4 -30 10 0 7 -3 8 -8 1 -8 -11 -74 -17 -67 -6 2 4
-2 8 -10 8 -8 0 -12 -4 -9 -8 2 -4 -10 -7 -28 -6 -24 1 -32 -2 -30 -12 3 -12
0 -12 -13 -1 -13 11 -14 10 -9 -5 5 -13 4 -16 -4 -11 -7 4 -12 3 -12 -3 0 -5
-8 -18 -17 -27 -16 -16 -16 -17 -1 -12 19 8 19 -19 -1 -32 -11 -6 -11 -9 0
-13 9 -4 8 -6 -5 -6 -15 -1 -16 -4 -6 -16 11 -13 10 -14 -5 -9 -15 6 -16 4 -6
-15 10 -17 9 -22 -3 -27 -8 -3 -16 -14 -19 -25 -3 -10 -1 -17 4 -13 5 3 6 -2
3 -10 -3 -9 -11 -13 -17 -9 -6 4 -7 1 -1 -8 12 -20 14 -40 3 -33 -5 3 -9 0 -9
-6 0 -6 -6 -8 -12 -4 -7 4 -4 -2 6 -14 11 -12 16 -25 13 -29 -4 -3 -7 -1 -7 6
0 7 -4 10 -10 6 -5 -3 -7 -12 -3 -20 3 -9 -1 -15 -8 -15 -11 0 -11 -3 1 -10
13 -8 13 -10 -2 -10 -11 0 -15 -5 -12 -15 4 -8 11 -12 17 -8 6 3 7 1 3 -6 -4
-6 -12 -8 -18 -5 -6 4 -9 1 -6 -7 7 -20 -11 -51 -24 -43 -7 4 -8 3 -4 -5 4 -6
12 -9 17 -6 5 4 9 1 9 -4 0 -6 -4 -11 -10 -11 -5 0 -6 -7 -3 -17 4 -10 2 -14
-5 -9 -7 4 -10 -1 -7 -14 2 -11 -1 -20 -7 -20 -7 0 -6 -6 2 -15 9 -11 9 -15 1
-15 -7 0 -10 -10 -7 -24 3 -18 1 -23 -9 -20 -10 4 -13 -1 -9 -21 4 -22 2 -26
-11 -22 -13 6 -13 3 1 -18 15 -23 15 -25 0 -31 -14 -5 -14 -9 -4 -22 8 -10 8
-13 2 -9 -7 4 -15 -1 -19 -10 -3 -10 -1 -19 4 -21 7 -2 3 -11 -7 -20 -10 -10
-13 -14 -7 -10 6 4 10 -5 10 -22 0 -17 -5 -26 -12 -23 -7 3 -11 -11 -10 -45 2
-40 -1 -48 -13 -44 -8 3 -12 2 -8 -3 4 -4 2 -15 -5 -23 -9 -13 -9 -14 1 -8 7
4 12 1 12 -9 0 -9 -4 -14 -9 -10 -10 6 -6 -33 4 -43 3 -3 -3 -14 -12 -25 -10
-11 -12 -17 -5 -13 11 7 12 4 3 -12 -14 -27 -14 -35 2 -26 9 6 9 5 0 -8 -7 -8
-9 -19 -5 -23 4 -5 -2 -5 -12 -1 -18 6 -19 5 -5 -11 18 -20 14 -57 -4 -46 -7
4 -5 -2 3 -12 9 -11 10 -16 3 -11 -7 4 -13 2 -13 -3 0 -6 8 -11 18 -11 14 0
15 -2 2 -10 -18 -11 -24 -130 -6 -130 8 0 7 -3 -1 -8 -14 -9 -13 -52 2 -52 6
0 7 -3 0 -8 -15 -11 -19 -46 -4 -36 9 5 9 3 3 -7 -10 -16 -12 -99 -3 -93 4 2
9 -3 13 -11 3 -8 2 -14 -2 -14 -22 4 -24 -3 -3 -18 23 -15 23 -17 6 -30 -18
-13 -18 -13 1 -13 14 0 16 -2 5 -9 -10 -7 -8 -12 10 -26 13 -10 17 -15 9 -12
-11 3 -16 -2 -16 -18 0 -16 4 -21 15 -17 9 3 12 1 7 -7 -4 -6 -1 -22 7 -35 14
-21 14 -25 0 -39 -15 -15 -15 -16 4 -11 13 4 20 1 20 -9 0 -9 -7 -13 -16 -10
-9 2 -5 -3 9 -11 14 -8 19 -15 12 -16 -7 0 -10 -5 -7 -10 4 -6 11 -7 17 -4 7
4 8 2 4 -4 -4 -7 -1 -12 6 -12 9 0 9 -3 -2 -10 -11 -7 -11 -10 -2 -10 7 0 10
-4 7 -10 -3 -5 -1 -10 5 -10 6 0 9 -4 6 -9 -4 -5 -1 -11 4 -13 6 -2 12 -13 13
-25 0 -12 4 -20 8 -17 9 5 22 -15 26 -41 2 -11 8 -21 13 -23 6 -2 10 -8 10
-14 0 -6 8 -17 18 -25 9 -8 11 -11 3 -7 -10 5 -12 3 -7 -5 5 -7 14 -10 21 -7
8 3 11 -2 8 -15 -3 -11 1 -21 11 -25 9 -3 13 -10 10 -15 -3 -5 3 -6 13 -2 10
3 15 3 11 -2 -4 -4 -2 -17 4 -29 7 -11 11 -24 10 -27 -1 -4 8 -5 18 -2 15 4
20 0 20 -16 0 -12 5 -19 10 -16 6 3 10 1 10 -5 0 -6 5 -8 10 -5 6 4 10 3 9 -2
-4 -22 3 -33 21 -33 14 0 20 -7 20 -21 0 -17 5 -20 21 -16 17 5 18 3 7 -11
-10 -12 -10 -14 0 -8 6 4 12 2 12 -3 0 -6 5 -11 11 -11 5 0 7 6 3 13 -5 8 -2
8 9 -2 20 -16 23 -26 5 -15 -9 5 -8 2 1 -9 9 -11 21 -15 35 -11 21 6 21 6 1
-10 -11 -9 -15 -16 -10 -15 6 1 19 1 30 0 17 -1 18 -3 5 -11 -12 -8 -11 -10 8
-10 12 0 22 -5 22 -11 0 -5 4 -7 10 -4 5 3 10 -1 10 -10 0 -11 5 -15 15 -11
14 5 20 -5 16 -27 -1 -5 4 -5 10 -1 6 3 15 1 19 -5 4 -7 16 -13 28 -14 17 -1
19 -4 10 -22 -10 -18 -10 -19 5 -6 15 12 17 11 17 -5 0 -16 2 -17 10 -4 8 13
10 13 10 -1 0 -20 24 -31 48 -22 14 6 15 4 4 -9 -14 -18 -6 -27 21 -23 15 3
16 1 5 -12 -12 -15 -10 -15 11 -4 15 8 21 9 17 2 -4 -6 -2 -11 5 -11 7 0 9 -8
6 -21 -4 -16 -3 -18 9 -8 11 9 14 9 14 0 0 -7 5 -9 12 -5 8 5 9 2 4 -11 -5
-15 -4 -16 8 -6 13 11 15 9 11 -9 -3 -18 -2 -20 10 -10 10 9 15 6 20 -11 6
-17 9 -19 16 -8 7 12 9 11 10 -1 1 -8 1 -19 0 -24 -1 -5 5 -6 14 -3 8 4 15 2
15 -4 0 -6 5 -7 12 -3 8 5 9 2 5 -9 -4 -12 -1 -17 10 -17 13 0 13 -3 3 -16 -8
-8 -9 -14 -4 -13 28 5 43 -2 37 -18 -5 -13 -2 -15 11 -10 10 4 15 3 11 -4 -4
-5 1 -22 11 -37 22 -32 27 -55 11 -45 -7 3 -4 -2 5 -13 12 -14 14 -24 7 -37
-7 -12 -7 -17 2 -17 7 0 5 -9 -6 -26 -9 -15 -12 -23 -6 -20 8 5 11 -12 11 -53
0 -34 4 -61 9 -61 5 0 8 -8 6 -17 -1 -10 2 -26 7 -37 7 -13 7 -16 -1 -12 -6 4
-11 2 -11 -4 0 -6 -4 -8 -10 -5 -6 3 -7 -1 -4 -9 3 -9 11 -13 18 -9 6 3 6 1
-1 -8 -7 -7 -13 -20 -13 -29 0 -12 2 -13 9 -1 6 9 8 4 7 -17 -1 -17 -5 -34 -9
-38 -11 -11 -9 -44 3 -44 6 0 10 -8 9 -17 0 -11 -3 -13 -6 -5 -8 20 -22 14
-16 -8 3 -11 8 -18 12 -16 4 3 7 -6 7 -19 0 -13 -3 -22 -7 -19 -4 2 -9 -3 -13
-11 -3 -9 0 -15 10 -15 8 0 12 -5 9 -10 -4 -6 -9 -8 -13 -6 -9 6 -5 -80 4 -96
5 -9 3 -9 -9 1 -12 10 -17 10 -17 1 0 -6 -6 -10 -12 -7 -7 2 -25 0 -40 -4 -18
-5 -29 -3 -32 4 -3 9 -5 9 -5 0 -1 -8 -8 -10 -18 -6 -16 6 -16 5 -4 -10 20
-25 5 -21 -19 6 -14 14 -19 16 -15 6 4 -10 0 -19 -9 -22 -11 -4 -13 -1 -9 11
5 14 3 15 -7 5 -11 -10 -18 -9 -34 4 -12 10 -15 11 -8 3 20 -23 14 -28 -23
-20 -20 5 -33 4 -29 -1 3 -5 1 -9 -5 -9 -5 0 -13 5 -16 10 -4 7 -12 7 -18 2
-7 -4 -22 -7 -35 -6 -15 1 -21 -3 -18 -11 3 -8 -2 -11 -15 -8 -11 3 -16 10
-12 17 4 7 1 6 -9 -1 -8 -7 -19 -9 -23 -5 -5 4 -5 1 -1 -6 4 -7 13 -9 19 -6 7
4 9 4 5 -1 -11 -11 -68 -12 -68 -1 0 5 -6 4 -12 -1 -7 -5 -29 -9 -48 -8 -23 1
-41 -5 -54 -18 -15 -15 -20 -16 -27 -5 -5 8 -9 8 -9 2 0 -7 -13 -10 -29 -9
-21 2 -28 -1 -24 -11 3 -9 -2 -14 -12 -14 -9 0 -14 4 -10 9 3 5 0 13 -6 17 -7
4 -9 3 -6 -3 4 -6 -1 -19 -9 -29 -9 -10 -13 -14 -10 -8 3 7 -1 15 -10 18 -10
4 -13 2 -8 -6 5 -8 2 -9 -9 -5 -9 3 -19 1 -23 -5 -5 -7 -2 -8 6 -3 9 6 11 4 5
-4 -4 -7 -18 -11 -31 -8 -13 2 -24 0 -24 -5 0 -5 -4 -7 -9 -3 -5 3 -12 1 -16
-5 -4 -6 -11 -7 -17 -4 -7 5 -8 2 -3 -6 6 -10 4 -12 -8 -7 -13 5 -17 1 -18
-16 0 -12 -3 -17 -5 -10 -4 9 -16 6 -42 -8 -20 -12 -41 -26 -47 -31 -7 -8 -6
-8 4 -3 9 5 12 4 7 -3 -4 -7 -14 -12 -22 -12 -8 0 -12 -4 -9 -10 3 -5 1 -10
-5 -10 -6 0 -8 -5 -4 -12 5 -8 1 -8 -12 2 -10 8 -16 10 -12 6 4 -5 3 -15 -4
-23 -16 -19 -13 -144 4 -154 10 -7 10 -9 1 -9 -7 0 -13 -4 -13 -10 0 -5 6 -9
13 -7 7 1 11 -7 11 -21 -1 -15 3 -21 12 -18 9 3 11 0 7 -12 -3 -9 -3 -14 2
-10 9 8 35 -16 35 -33 0 -8 5 -8 17 2 11 10 14 10 9 1 -4 -7 -2 -12 4 -12 6 0
8 -5 4 -11 -4 -8 1 -9 16 -4 14 4 20 3 16 -3 -7 -11 22 -26 43 -23 8 1 10 -2
6 -9 -6 -9 -2 -9 15 0 12 7 20 8 16 2 -3 -5 1 -13 10 -16 10 -4 13 -2 8 7 -4
6 3 2 15 -10 22 -23 37 -31 26 -14 -11 19 13 20 33 1 19 -18 21 -18 25 -2 4
16 5 16 6 0 1 -11 9 -18 21 -18 11 0 20 -4 20 -10 0 -5 5 -10 11 -10 5 0 8 4
5 8 -3 5 1 9 9 9 8 0 12 -4 9 -9 -3 -4 3 -8 13 -8 11 0 25 -6 32 -13 11 -10
12 -9 6 3 -7 12 -6 13 6 3 12 -10 18 -10 29 0 10 10 12 8 6 -7 -5 -15 -4 -16
7 -8 8 7 18 7 27 2 9 -5 19 -5 27 2 11 8 12 7 7 -8 -6 -16 -5 -17 7 -7 7 7 18
13 23 13 6 0 4 -5 -4 -10 -11 -7 2 -10 44 -10 51 0 57 -2 52 -18 -5 -14 -4
-14 9 2 15 20 15 20 16 0 0 -15 2 -16 7 -4 8 18 42 26 42 10 0 -6 -4 -9 -9 -5
-5 3 -12 1 -15 -4 -4 -5 7 -7 24 -5 20 4 30 1 30 -8 0 -10 2 -10 9 1 7 11 15
11 41 2 29 -10 31 -9 19 6 -13 15 -12 15 7 5 12 -6 24 -8 28 -5 3 3 6 1 6 -6
0 -7 5 -9 12 -5 18 11 48 12 54 2 3 -5 15 -6 26 -2 13 4 18 2 14 -4 -3 -6 -2
-13 3 -16 5 -4 13 -1 17 5 5 8 3 9 -7 4 -8 -5 -11 -4 -6 0 15 17 52 16 64 -2
12 -15 13 -15 13 7 0 23 0 23 16 4 8 -10 13 -14 11 -9 -3 6 6 11 19 11 23 2
24 1 7 -12 -17 -12 -16 -13 5 -7 12 3 22 9 22 15 0 5 8 4 19 -2 12 -6 22 -6
26 -1 3 6 14 8 25 6 11 -2 20 1 20 7 0 7 4 7 13 -1 8 -6 18 -7 22 -3 5 4 5 2
2 -4 -4 -6 -18 -10 -32 -9 -14 2 -23 0 -20 -5 5 -9 77 -2 85 8 7 11 152 9 169
-2 10 -7 12 -6 6 4 -5 8 -3 11 6 8 8 -3 13 -11 11 -17 -1 -7 2 -9 8 -6 6 4 9
14 5 24 -5 12 -4 13 6 4 8 -8 18 -9 29 -3 9 5 22 5 30 0 10 -6 21 -3 33 7 16
15 17 15 12 1 -5 -13 -2 -15 14 -11 12 3 18 10 14 17 -4 7 -1 6 9 -2 15 -12
70 -13 62 -1 -10 16 40 17 53 1 12 -16 12 -15 6 2 -5 15 -3 18 10 13 10 -4 17
-1 17 6 0 7 3 8 8 2 8 -12 62 -14 62 -3 0 4 -5 8 -12 8 -6 0 -8 3 -4 7 4 5 14
-1 22 -11 8 -12 14 -14 14 -7 0 8 6 11 16 7 8 -3 13 -2 10 3 -3 5 1 11 9 14 9
4 12 1 9 -7 -3 -7 2 -13 10 -13 8 0 12 6 9 13 -2 6 1 15 8 20 7 4 10 3 5 -4
-11 -18 61 -8 83 12 12 11 21 14 21 8 0 -6 -5 -12 -12 -14 -9 -3 -9 -6 0 -12
7 -4 12 -2 12 4 0 6 5 8 10 5 6 -4 9 -1 8 6 -2 6 3 14 11 17 9 3 11 0 6 -9 -6
-11 -5 -12 6 -1 17 16 32 16 24 0 -4 -7 3 -2 14 12 11 14 21 21 21 16 0 -5 6
-3 14 3 10 9 20 9 33 3 13 -7 24 -6 38 4 11 8 19 17 18 19 -4 7 11 4 17 -2 3
-4 -1 -3 -9 2 -10 6 -12 4 -6 -5 6 -10 11 -10 20 3 7 10 25 17 41 17 22 0 26
3 14 10 -12 8 -10 10 10 11 14 1 29 1 34 0 5 -1 3 5 -4 14 -11 13 -10 15 4 9
9 -4 16 -1 16 6 0 7 7 10 15 6 8 -3 14 -2 12 2 -1 4 2 8 7 9 14 2 24 25 21 46
-4 16 -2 17 11 6 8 -6 17 -9 21 -5 3 3 1 6 -5 6 -8 0 -9 7 -3 23 5 12 7 32 5
44 -2 12 1 25 6 28 6 3 10 11 10 16 0 6 -4 8 -8 5 -4 -2 -8 16 -7 40 0 54 -7
69 -30 60 -15 -5 -16 -4 -5 9 9 11 9 15 1 15 -7 0 -9 5 -5 13 5 7 0 6 -11 -3
-17 -14 -18 -13 -13 5 4 17 0 21 -21 23 -14 1 -34 11 -43 23 -10 12 -18 16
-18 10 0 -6 -4 -11 -10 -11 -5 0 -9 3 -9 8 1 4 1 14 0 22 -1 13 -2 13 -11 0
-6 -10 -10 -11 -10 -3 0 7 -3 12 -7 12 -22 -4 -43 2 -38 10 3 5 1 12 -5 16 -5
3 -10 1 -10 -5 0 -7 -6 -8 -17 -2 -10 5 -25 7 -33 4 -11 -4 -10 -1 3 12 9 10
17 20 17 24 0 3 -5 1 -12 -6 -14 -14 -32 -16 -23 -2 4 7 -2 7 -19 0 -16 -6
-27 -6 -31 1 -4 5 -11 7 -16 4 -5 -4 -9 1 -9 9 0 9 -4 16 -10 16 -5 0 -6 -8
-3 -17 6 -15 5 -16 -9 -3 -9 8 -13 20 -10 25 3 6 -1 4 -9 -2 -12 -10 -18 -10
-29 0 -10 9 -11 9 -6 0 5 -9 2 -11 -8 -7 -9 3 -13 11 -9 18 4 6 -2 4 -12 -4
-11 -9 -16 -10 -11 -2 4 7 1 12 -8 13 -9 1 -22 2 -28 3 -7 1 -19 -2 -25 -7 -9
-6 -15 -4 -19 7 -5 12 -10 14 -19 6 -9 -7 -16 -6 -24 4 -12 14 -35 16 -47 4
-9 -10 -54 14 -47 24 3 6 -7 2 -23 -8 -33 -23 -27 -22 -47 -6 -9 8 -39 14 -67
14 -28 -1 -48 3 -46 7 3 4 -1 8 -9 8 -8 0 -12 -3 -10 -7 2 -3 -5 -6 -15 -7
-10 -1 -21 5 -24 12 -4 10 -13 12 -35 5 -26 -7 -31 -6 -31 8 0 15 -2 15 -10 2
-9 -13 -10 -13 -10 0 0 13 -2 13 -9 0 -7 -10 -9 -3 -7 20 2 19 5 40 6 45 1 6
1 12 0 15 -3 5 -10 92 -10 118 0 22 0 42 0 60 0 9 0 27 0 40 0 12 6 22 13 22
8 0 7 3 -2 9 -13 8 -13 12 0 27 13 16 12 17 -5 11 -14 -6 -16 -4 -9 5 5 7 8
38 7 68 -1 30 2 60 8 67 5 7 5 13 0 17 -12 7 -10 122 2 133 5 4 7 3 3 -2 -3
-6 -2 -16 2 -23 6 -10 13 42 14 110 0 25 1 26 13 10 12 -15 13 -15 14 10 0 15
5 30 12 34 7 5 8 3 3 -7 -8 -12 -6 -12 9 0 13 11 14 16 4 22 -11 7 -11 9 0 9
8 0 10 5 6 13 -5 8 -2 8 9 -2 15 -12 17 -11 17 3 0 10 8 16 21 16 19 0 20 2 8
17 -8 10 -9 14 -2 10 6 -4 15 -2 18 4 4 5 14 8 22 4 13 -4 14 -3 4 9 -11 13
-9 15 7 11 11 -2 28 5 37 16 10 10 21 16 25 14 5 -3 6 5 3 17 -4 19 -3 20 6 8
9 -13 12 -12 17 8 6 21 7 21 20 5 12 -17 13 -16 7 5 -4 17 -2 21 9 17 9 -4 19
3 27 17 7 15 10 16 6 4 -5 -16 -3 -17 10 -6 8 7 13 16 10 20 -3 5 0 12 6 16 8
4 9 3 5 -4 -14 -23 5 -12 35 20 17 18 28 27 24 21 -7 -15 4 -17 25 -3 11 7 11
10 2 10 -7 0 -10 5 -7 10 4 6 11 8 16 5 5 -4 9 -1 9 4 0 6 5 11 11 11 5 0 7
-4 4 -10 -3 -5 -4 -10 0 -10 3 0 10 11 15 24 5 14 19 30 31 36 17 10 20 9 14
-2 -3 -7 0 -4 9 6 8 10 13 23 10 27 -3 5 2 6 10 3 8 -3 23 -1 33 5 11 6 13 11
5 11 -7 0 -11 4 -7 10 3 5 13 6 22 3 13 -5 15 -2 10 11 -4 10 -3 15 3 11 6 -3
10 -2 10 4 0 5 12 7 28 5 26 -5 26 -4 7 10 -11 8 -17 18 -12 22 4 4 7 3 7 -3
0 -7 9 -9 22 -5 21 5 21 6 2 13 -18 7 -17 8 4 8 12 1 21 5 20 10 -4 11 58 71
72 71 6 0 8 5 4 12 -5 8 -2 9 11 4 15 -5 16 -4 5 9 -7 9 -10 18 -6 22 3 3 6 2
6 -4 0 -5 6 -10 13 -10 9 0 13 10 11 24 -2 21 0 22 14 11 13 -11 15 -11 9 5
-3 9 -2 17 4 17 6 0 7 5 3 12 -5 8 -2 9 9 5 9 -3 16 -3 16 1 -3 18 2 33 9 29
4 -3 13 2 21 10 12 13 11 14 -10 9 -20 -6 -21 -5 -6 4 9 6 14 16 11 22 -5 7
-2 9 9 5 9 -3 18 0 21 9 4 10 1 13 -7 9 -6 -4 -5 -1 4 7 9 7 14 19 11 27 -3 8
0 11 7 7 10 -6 16 12 12 37 0 4 3 7 9 7 5 0 10 -5 10 -12 0 -6 3 -8 6 -5 4 4
2 13 -4 20 -7 8 -8 17 -4 21 4 4 7 11 7 14 1 19 40 70 49 65 6 -4 4 2 -4 12
-14 17 -13 18 2 13 17 -7 19 7 4 31 -6 9 -5 12 1 8 6 -4 14 0 17 9 3 8 2 12
-4 9 -5 -3 -7 1 -4 9 3 9 10 14 16 13 6 -1 11 12 13 28 3 28 2 28 -7 8 -6 -13
-15 -23 -20 -23 -5 0 0 13 11 29 13 18 21 45 21 70 0 34 3 39 18 35 16 -5 16
-5 0 6 -18 11 -26 36 -9 25 5 -3 13 0 17 6 4 7 3 9 -4 5 -6 -3 -13 -2 -17 4
-6 9 8 14 28 11 4 -1 3 7 -3 18 -12 23 -13 44 -2 37 4 -2 9 4 9 15 1 10 -3 19
-8 19 -6 0 -7 -5 -3 -12 5 -7 3 -8 -5 -4 -9 6 -9 12 3 25 19 21 15 49 -10 69
-17 13 -17 14 -1 8 14 -4 17 -1 15 12 -1 9 1 23 6 31 6 10 5 12 -2 7 -8 -5
-12 1 -12 14 0 13 -4 19 -12 14 -7 -4 -8 -3 -4 5 4 6 11 9 15 7 4 -3 8 2 8 10
0 8 -6 13 -12 10 -6 -2 -12 2 -12 10 0 8 6 13 13 10 8 -3 11 0 7 9 -3 8 -8 13
-12 11 -4 -3 -8 4 -8 15 -1 15 1 18 10 10 9 -7 13 -5 13 8 0 11 -6 17 -12 14
-14 -5 -13 14 0 36 6 9 3 18 -9 28 -11 7 -14 13 -8 13 6 0 8 11 5 25 -2 14 -8
23 -11 20 -4 -2 -8 2 -8 10 0 8 4 12 9 9 4 -3 8 4 8 15 0 10 -5 21 -12 23 -7
3 -12 29 -13 64 -1 33 -5 65 -8 71 -4 6 -5 18 -1 26 3 8 -2 22 -11 31 -12 12
-13 16 -3 17 7 0 4 4 -7 9 -11 5 -15 9 -8 9 14 1 10 36 -5 36 -6 0 -14 4 -19
8 -4 5 -2 7 6 5 7 -1 16 3 19 11 2 8 0 11 -6 8 -5 -4 -12 3 -16 16 -9 35 -7
49 6 41 7 -4 2 6 -10 23 -16 23 -19 34 -11 39 8 5 9 3 4 -6 -6 -9 -4 -11 5 -5
10 6 8 12 -8 26 -25 19 -28 35 -9 42 8 4 6 6 -4 6 -12 1 -15 8 -11 27 2 14 0
29 -7 33 -6 4 -12 19 -13 34 -1 16 -8 27 -18 28 -13 0 -13 1 0 7 8 4 16 13 18
21 3 12 0 12 -12 2 -12 -10 -14 -9 -9 11 4 18 3 20 -6 8 -6 -8 -11 -10 -11 -5
0 6 5 16 12 23 7 7 8 12 2 12 -8 0 -14 26 -17 77 0 10 -4 10 -14 1 -11 -8 -12
-7 -7 6 3 9 0 24 -7 33 -8 10 -9 14 -2 10 8 -5 11 0 10 13 -1 22 -12 26 -21 8
-3 -7 -3 -3 0 10 3 13 0 30 -8 39 -11 14 -11 16 2 8 9 -5 8 0 -4 13 -19 22
-19 22 0 22 15 0 16 2 4 9 -8 6 -18 7 -22 5 -4 -3 -5 2 -2 10 3 9 1 16 -5 16
-6 0 -8 7 -4 17 5 12 2 15 -10 10 -11 -4 -14 -2 -10 8 5 15 -31 35 -76 41 -22
3 -22 2 -5 -11 17 -13 13 -13 -23 0 -26 8 -45 10 -48 4 -10 -15 -25 -10 -26 9
0 14 -2 14 -9 -3 -5 -11 -9 -14 -9 -6 -1 11 -4 11 -17 0 -15 -12 -16 -11 -9
11 l8 25 -23 -25 c-12 -14 -20 -18 -17 -10 3 10 -2 16 -13 16 -10 0 -16 -5
-13 -11 2 -7 -3 -12 -11 -12 -8 0 -13 4 -10 9 3 4 -2 8 -11 8 -9 0 -14 4 -10
9 3 5 -7 4 -22 -4 -16 -7 -39 -16 -53 -20 -23 -7 -24 -7 -10 11 15 18 14 18
-14 0 -22 -14 -28 -15 -24 -4 4 8 0 15 -8 15 -7 0 -11 -4 -8 -9 5 -8 4 -9 -33
-13 -24 -2 -31 9 -13 20 6 3 10 1 10 -4 0 -6 5 -11 11 -11 8 0 8 5 -1 15 -9
11 -16 12 -26 4 -7 -6 -19 -7 -26 -3 -10 6 -11 5 -1 -7 10 -12 8 -15 -7 -15
-10 0 -17 3 -15 6 2 3 -5 12 -17 19 -16 10 -18 10 -12 0 5 -9 2 -10 -9 -6 -9
3 -19 1 -23 -5 -5 -7 -2 -8 7 -3 8 5 10 4 6 0 -12 -14 -39 -15 -34 -1 3 8 -5
12 -24 12 -16 0 -29 -4 -29 -8 0 -5 10 -7 23 -3 19 5 20 5 4 -5 -14 -9 -22 -8
-34 1 -8 7 -21 14 -29 15 -11 2 -11 -2 -2 -19 10 -19 9 -20 -4 -10 -8 7 -18
10 -21 6 -4 -3 -17 2 -29 13 -12 10 -18 14 -15 7 4 -6 3 -14 -3 -18 -5 -3 -10
2 -10 12 0 15 -2 15 -9 4 -10 -16 -68 -25 -75 -12 -3 4 11 7 30 6 28 -2 32 0
23 12 -8 8 -16 10 -23 4 -6 -5 -28 -8 -49 -7 -26 2 -37 -1 -33 -9 2 -6 -2 -12
-10 -12 -8 0 -13 6 -10 13 6 16 -10 29 -18 15 -3 -5 -33 -8 -66 -7 -41 1 -59
-2 -56 -9 2 -7 -2 -12 -10 -12 -8 0 -13 6 -10 13 3 8 0 16 -6 20 -7 4 -8 3 -4
-4 5 -9 -5 -11 -34 -9 -23 2 -44 -1 -47 -6 -3 -6 -1 -7 5 -3 6 3 13 3 16 -2 2
-4 -6 -8 -19 -8 -13 0 -21 4 -19 8 3 4 -1 8 -10 8 -8 0 -17 6 -19 13 -4 9 -6
9 -6 -1 -1 -7 -5 -10 -11 -7 -5 3 -10 1 -10 -5 0 -7 7 -10 15 -7 8 4 17 3 19
-2 9 -14 -29 -9 -47 8 -10 8 -18 11 -17 6 5 -25 -1 -28 -16 -7 -12 18 -19 21
-30 11 -7 -6 -20 -9 -29 -6 -8 4 -17 1 -21 -5 -5 -7 -2 -8 7 -3 8 5 10 4 6 0
-13 -15 -39 -15 -33 0 3 10 -2 12 -20 9 -19 -3 -24 -1 -18 8 6 10 3 9 -9 -1
-20 -16 -23 -25 -4 -15 6 4 8 3 4 -1 -12 -14 -39 -15 -34 -1 3 6 -4 13 -14 13
-10 1 -19 -3 -19 -8 0 -6 6 -7 13 -3 7 4 9 3 4 -2 -11 -12 -50 -12 -59 0 -10
15 -49 14 -55 -1 -3 -7 -10 -13 -15 -13 -6 0 -8 7 -5 15 8 20 -4 24 -33 9z
m23 -9 c-3 -9 -8 -14 -10 -11 -3 3 -2 9 2 15 9 16 15 13 8 -4z m330 2 c3 -8
-1 -14 -9 -14 -15 0 -18 9 -7 20 9 9 10 9 16 -6z m370 -2 c-3 -9 -8 -14 -10
-11 -3 3 -2 9 2 15 9 16 15 13 8 -4z m-633 -9 c-7 -7 -13 -7 -20 0 -6 6 -3 10
10 10 13 0 16 -4 10 -10z m535 4 c3 -5 1 -10 -4 -10 -6 0 -11 5 -11 10 0 6 2
10 4 10 3 0 8 -4 11 -10z m40 -8 c-3 -3 -11 0 -18 7 -9 10 -8 11 6 5 10 -3 15
-9 12 -12z m120 8 c3 -5 1 -10 -4 -10 -6 0 -11 5 -11 10 0 6 2 10 4 10 3 0 8
-4 11 -10z m600 0 c3 -5 1 -10 -4 -10 -6 0 -11 5 -11 10 0 6 2 10 4 10 3 0 8
-4 11 -10z m563 -865 c-3 -3 -9 2 -12 12 -6 14 -5 15 5 6 7 -7 10 -15 7 -18z
m-2301 -1380 c0 -8 -4 -12 -9 -9 -5 3 -6 10 -3 15 9 13 12 11 12 -6z m1449
-493 c-17 -16 -18 -16 -5 5 7 12 15 20 18 17 3 -2 -3 -12 -13 -22z m-1182
-1001 c-8 -9 -44 -11 -44 -3 0 4 11 8 25 8 13 0 22 -2 19 -5z m-304 -91 c0 -5
-5 -10 -11 -10 -5 0 -7 5 -4 10 3 6 8 10 11 10 2 0 4 -4 4 -10z m2080 -484 c0
-3 -4 -8 -10 -11 -5 -3 -10 -1 -10 4 0 6 5 11 10 11 6 0 10 -2 10 -4z m-555
-106 c-3 -5 -12 -10 -18 -10 -7 0 -6 4 3 10 19 12 23 12 15 0z"/>
<path d="M1766 4708 c3 -5 10 -6 15 -3 13 9 11 12 -6 12 -8 0 -12 -4 -9 -9z"/>
<path d="M1827 4709 c7 -7 15 -10 18 -7 3 3 -2 9 -12 12 -14 6 -15 5 -6 -5z"/>
<path d="M2930 4710 c0 -5 5 -10 11 -10 5 0 7 5 4 10 -3 6 -8 10 -11 10 -2 0
-4 -4 -4 -10z"/>
<path d="M3915 4001 c-3 -5 -2 -12 3 -15 5 -3 9 1 9 9 0 17 -3 19 -12 6z"/>
<path d="M1380 2880 c0 -5 5 -10 11 -10 5 0 7 5 4 10 -3 6 -8 10 -11 10 -2 0
-4 -4 -4 -10z"/>
<path d="M3911 2767 c-13 -21 -12 -21 5 -5 10 10 16 20 13 22 -3 3 -11 -5 -18
-17z"/>
<path d="M1480 2639 c0 -5 5 -7 10 -4 6 3 10 8 10 11 0 2 -4 4 -10 4 -5 0 -10
-5 -10 -11z"/>
<path d="M3630 2359 c0 -5 5 -7 10 -4 6 3 10 8 10 11 0 2 -4 4 -10 4 -5 0 -10
-5 -10 -11z"/>
<path d="M2420 1740 c0 -5 5 -10 11 -10 5 0 7 5 4 10 -3 6 -8 10 -11 10 -2 0
-4 -4 -4 -10z"/>
<path d="M2445 1440 c3 -5 8 -10 11 -10 2 0 4 5 4 10 0 6 -5 10 -11 10 -5 0
-7 -4 -4 -10z"/>
<path d="M2446 1327 c3 -10 9 -15 12 -12 3 3 0 11 -7 18 -10 9 -11 8 -5 -6z"/>
<path d="M3156 1012 c-3 -5 1 -9 9 -9 8 0 12 4 9 9 -3 4 -7 8 -9 8 -2 0 -6 -4
-9 -8z"/>
<path d="M3951 674 c0 -11 3 -14 6 -6 3 7 2 16 -1 19 -3 4 -6 -2 -5 -13z"/>
<path d="M1686 365 c4 -8 11 -15 16 -15 6 0 5 6 -2 15 -7 8 -14 15 -16 15 -2
0 -1 -7 2 -15z"/>
<path d="M3626 354 c-5 -14 -4 -15 9 -4 17 14 19 20 6 20 -5 0 -12 -7 -15 -16z"/>
<path d="M3175 270 c-3 -5 -1 -10 4 -10 6 0 11 5 11 10 0 6 -2 10 -4 10 -3 0
-8 -4 -11 -10z"/>
<path d="M2346 238 c3 -5 10 -6 15 -3 13 9 11 12 -6 12 -8 0 -12 -4 -9 -9z"/>
<path d="M2456 238 c3 -5 10 -6 15 -3 13 9 11 12 -6 12 -8 0 -12 -4 -9 -9z"/>
<path d="M2816 238 c3 -5 10 -6 15 -3 13 9 11 12 -6 12 -8 0 -12 -4 -9 -9z"/>
<path d="M2856 238 c3 -5 10 -6 15 -3 13 9 11 12 -6 12 -8 0 -12 -4 -9 -9z"/>
<path d="M2980 239 c0 -5 5 -7 10 -4 6 3 10 8 10 11 0 2 -4 4 -10 4 -5 0 -10
-5 -10 -11z"/>
</g>
</svg>
