<?xml version="1.0" standalone="no"?>
<!DOCTYPE svg PUBLIC "-//W3C//DTD SVG 20010904//EN"
 "http://www.w3.org/TR/2001/REC-SVG-20010904/DTD/svg10.dtd">
<svg version="1.0" xmlns="http://www.w3.org/2000/svg"
 width="261.000000pt" height="261.000000pt" viewBox="0 0 261.000000 261.000000"
 preserveAspectRatio="xMidYMid meet">
<metadata>
Created by potrace 1.14, written by Peter Selinger 2001-2017
</metadata>
<g transform="translate(0.000000,261.000000) scale(0.100000,-0.100000)"
fill="#000000" stroke="none">
<path d="M671 2422 c-29 -15 -75 -89 -339 -547 -250 -433 -306 -536 -305 -565
1 -27 72 -158 298 -550 163 -283 310 -527 326 -542 l29 -28 623 0 c504 1 627
3 646 14 33 18 641 1069 641 1107 0 25 -38 93 -437 784 -154 266 -184 312
-213 327 -32 17 -84 18 -635 18 -552 0 -603 -1 -634 -18z m1566 -576 c287
-497 304 -530 293 -555 -20 -44 -582 -1015 -598 -1033 -14 -17 -57 -18 -628
-18 l-613 0 -19 27 c-58 84 -592 1026 -592 1044 0 21 564 1012 598 1052 14 16
54 17 635 15 l619 -3 305 -529z"/>
<path d="M1388 2041 c-33 -27 -71 -45 -127 -61 -77 -23 -80 -24 -86 -59 -15
-80 -336 -908 -397 -1023 -33 -62 -76 -98 -154 -127 -38 -15 -50 -24 -52 -44
-2 -17 2 -26 15 -29 10 -3 132 -3 271 0 203 4 255 7 259 18 9 23 -15 42 -74
59 -72 21 -103 52 -103 102 1 21 20 94 43 163 l42 125 199 3 c110 1 203 -1
208 -6 14 -14 78 -255 78 -294 0 -45 -30 -72 -106 -94 -56 -16 -80 -35 -71
-58 5 -11 65 -14 349 -14 211 0 348 4 355 10 23 18 -4 44 -69 68 -109 40 -111
43 -231 410 -58 179 -140 433 -182 565 -86 274 -104 325 -113 325 -4 -1 -28
-18 -54 -39z m-58 -495 c39 -132 69 -245 66 -252 -4 -11 -38 -14 -153 -14 -81
0 -154 4 -162 9 -12 8 2 55 74 261 48 138 92 247 96 243 5 -5 40 -116 79 -247z"/>
</g>
</svg>
