<?xml version="1.0" standalone="no"?>
<!DOCTYPE svg PUBLIC "-//W3C//DTD SVG 20010904//EN"
 "http://www.w3.org/TR/2001/REC-SVG-20010904/DTD/svg10.dtd">
<svg version="1.0" xmlns="http://www.w3.org/2000/svg"
 width="292.000000pt" height="292.000000pt" viewBox="0 0 292.000000 292.000000"
 preserveAspectRatio="xMidYMid meet">
<metadata>
Created by potrace 1.14, written by Peter Selinger 2001-2017
</metadata>
<g transform="translate(0.000000,292.000000) scale(0.100000,-0.100000)"
fill="#000000" stroke="none">
<path d="M2276 2418 c-8 -13 -25 -45 -38 -73 -13 -27 -25 -52 -28 -55 -3 -3
-17 -27 -30 -55 -14 -27 -27 -52 -30 -55 -3 -3 -21 -34 -39 -70 -19 -36 -45
-82 -58 -102 -13 -21 -23 -40 -23 -42 0 -2 -20 -39 -45 -80 -25 -42 -45 -81
-45 -86 0 -6 -4 -10 -9 -10 -5 0 -11 -8 -15 -17 -3 -10 -24 -47 -46 -83 -22
-36 -43 -72 -47 -80 -3 -8 -19 -34 -35 -57 -15 -23 -28 -46 -28 -51 0 -6 -3
-12 -8 -14 -4 -1 -29 -38 -55 -80 -27 -43 -53 -81 -60 -85 -7 -5 -84 -9 -172
-9 -223 -2 -319 -6 -373 -15 -26 -4 -69 -10 -97 -13 -84 -7 -122 -14 -280 -52
-81 -19 -208 -60 -246 -80 -15 -7 -29 -10 -33 -7 -3 4 -6 1 -6 -5 0 -7 -5 -12
-12 -12 -24 0 -149 -82 -196 -128 -121 -119 -126 -267 -12 -382 60 -62 118
-97 213 -131 103 -38 325 -32 432 11 100 40 243 121 285 161 8 8 40 34 70 59
113 92 266 262 388 430 77 107 84 112 141 115 28 1 51 -1 51 -6 0 -9 -24 -77
-41 -114 -5 -11 -18 -47 -29 -80 -12 -33 -25 -69 -30 -80 -7 -19 -21 -67 -36
-130 -4 -16 -9 -55 -10 -85 -1 -43 3 -60 18 -77 12 -12 17 -27 13 -34 -5 -7
-4 -10 2 -6 6 4 25 -7 43 -23 44 -41 92 -41 148 0 23 17 42 26 42 20 0 -5 16
-20 36 -34 39 -26 72 -26 112 0 28 18 30 39 3 24 -31 -16 -48 -12 -86 22 l-37
32 27 14 c36 18 85 8 115 -23 29 -31 31 -31 54 3 11 15 16 24 11 19 -5 -4 -22
5 -37 20 -40 38 -100 39 -148 1 l-34 -27 -33 30 c-43 37 -90 39 -131 4 -37
-31 -51 -18 -46 45 4 66 16 130 23 130 4 0 7 9 8 20 2 22 84 243 111 300 16
32 45 45 74 32 4 -1 -6 -40 -22 -85 -59 -163 -27 -248 78 -204 21 9 55 10 123
4 52 -4 103 -7 114 -8 33 -1 97 19 123 38 25 19 26 18 48 -3 14 -15 29 -21 42
-17 11 2 29 0 40 -6 24 -13 39 -1 77 58 45 71 105 115 105 77 0 -8 4 -17 9
-20 13 -8 51 26 55 50 7 35 -9 49 -56 47 -24 -1 -53 3 -65 9 -29 15 -44 2 -78
-67 -23 -48 -71 -102 -82 -91 -2 2 1 32 6 66 13 79 3 100 -44 100 -23 0 -48
-11 -79 -35 -53 -40 -56 -41 -50 -17 8 34 -20 53 -79 53 -70 1 -94 -7 -103
-33 -7 -23 12 -41 34 -33 43 16 64 17 60 5 -7 -23 -60 -57 -65 -42 -8 21 -30
13 -73 -25 -22 -21 -54 -43 -71 -50 -28 -12 -29 -11 -29 16 0 29 31 134 55
186 l14 30 308 -1 c169 -1 338 -4 376 -9 l67 -7 0 31 c0 28 -3 31 -32 32 -18
0 -185 1 -371 0 -316 0 -338 1 -332 17 36 86 85 220 85 233 0 18 -31 31 -48
20 -9 -5 -75 -164 -105 -253 -4 -11 -16 -16 -36 -16 -17 1 -31 4 -31 7 0 9 34
99 54 146 10 22 22 49 26 60 4 11 20 48 34 81 14 34 26 64 26 67 0 4 11 30 24
59 14 30 34 78 46 108 12 30 28 69 35 85 8 17 32 75 54 130 22 55 64 158 94
230 30 71 52 135 50 142 -8 21 -51 15 -67 -9z m-362 -854 c-30 -71 -60 -140
-66 -154 -28 -66 -36 -75 -73 -78 l-36 -3 26 41 c14 22 42 66 62 98 42 64 53
82 103 169 19 34 36 60 37 59 2 -2 -22 -61 -53 -132z m-332 -318 c-5 -6 -51
-67 -103 -136 -92 -122 -294 -336 -375 -398 -130 -99 -255 -164 -344 -178 -14
-2 -47 -8 -74 -13 -27 -5 -54 -8 -60 -7 -6 2 -33 6 -61 10 -208 29 -359 146
-364 281 -3 68 39 130 140 208 21 16 114 68 129 72 14 4 47 18 62 26 10 5 25
9 33 9 8 0 23 4 33 9 26 13 90 32 126 38 17 3 37 10 44 15 7 6 15 8 18 6 3 -3
22 -2 42 4 46 11 155 29 202 32 19 2 60 7 90 11 30 4 78 9 105 10 140 6 330
18 333 20 10 9 32 -9 24 -19z m637 -190 c-7 -15 -17 -22 -26 -19 -11 5 -11 9
4 24 25 25 34 23 22 -5z m-350 -370 l25 -25 -28 -11 c-38 -14 -62 -13 -96 5
-36 18 -39 48 -7 62 29 13 75 0 106 -31z"/>
</g>
</svg>
