<?xml version="1.0" standalone="no"?>
<!DOCTYPE svg PUBLIC "-//W3C//DTD SVG 20010904//EN"
 "http://www.w3.org/TR/2001/REC-SVG-20010904/DTD/svg10.dtd">
<svg version="1.0" xmlns="http://www.w3.org/2000/svg"
 width="237.000000pt" height="237.000000pt" viewBox="0 0 237.000000 237.000000"
 preserveAspectRatio="xMidYMid meet">
<metadata>
Created by potrace 1.14, written by Peter Selinger 2001-2017
</metadata>
<g transform="translate(0.000000,237.000000) scale(0.100000,-0.100000)"
fill="#000000" stroke="none">
<path d="M1619 1903 c-23 -43 -53 -98 -67 -123 -83 -151 -204 -359 -258 -442
l-63 -98 -158 -1 c-282 0 -500 -43 -660 -128 -113 -60 -163 -123 -163 -204 0
-58 17 -94 67 -137 129 -113 336 -119 515 -13 100 59 265 218 363 351 38 50
71 92 75 93 44 6 61 3 57 -11 -3 -8 -22 -62 -42 -120 -21 -58 -40 -132 -43
-166 -4 -58 -3 -61 30 -97 39 -41 63 -45 109 -21 28 14 32 14 48 0 28 -25 67
-19 107 16 l36 32 -26 23 c-33 28 -66 29 -97 3 l-24 -19 38 6 c28 4 42 1 58
-13 19 -17 19 -19 3 -31 -28 -21 -42 -16 -93 32 -52 48 -81 56 -119 29 -21
-15 -22 -14 -22 18 0 42 13 89 57 211 26 72 42 101 57 107 12 4 22 7 23 6 2
-1 -6 -28 -17 -59 -23 -65 -26 -110 -7 -124 6 -6 71 -9 145 -7 107 1 137 5
151 18 16 15 19 15 31 1 13 -16 90 -22 90 -7 0 5 16 27 36 51 32 37 38 40 48
25 11 -15 14 -15 29 1 22 22 22 53 0 58 -44 10 -96 2 -107 -18 -23 -42 -48
-75 -55 -75 -5 0 -5 17 -1 38 3 21 5 43 2 50 -5 16 -63 15 -85 -3 -16 -12 -21
-11 -38 6 -31 31 -119 18 -119 -17 0 -13 8 -15 36 -12 l37 4 -23 -18 c-17 -14
-25 -16 -31 -7 -5 9 -18 3 -45 -19 -57 -47 -65 -43 -47 25 17 67 31 96 42 89
4 -3 113 -6 242 -6 230 -2 234 -1 237 19 3 21 1 21 -237 21 -133 0 -241 2
-241 4 0 2 11 34 25 70 28 75 31 106 11 106 -20 0 -30 -17 -62 -102 -21 -57
-33 -78 -46 -78 -23 0 -23 2 6 69 14 31 40 94 60 141 19 47 71 173 116 280 94
224 102 250 72 250 -15 0 -31 -20 -63 -77z m-212 -525 c-52 -127 -53 -128 -83
-128 l-24 0 24 38 c14 20 46 72 72 115 25 42 47 77 49 77 2 0 -15 -46 -38
-102z m-260 -250 c-68 -94 -204 -236 -281 -294 -118 -90 -230 -124 -345 -106
-213 36 -293 205 -144 304 72 47 88 55 163 80 158 54 359 85 562 87 l98 1 -53
-72z m583 -1 c0 -2 -10 -12 -22 -23 l-23 -19 19 23 c18 21 26 27 26 19z m-110
-52 c0 -8 -7 -15 -16 -15 -14 0 -14 3 -4 15 7 8 14 15 16 15 2 0 4 -7 4 -15z
m-242 -238 c12 -13 19 -27 15 -30 -12 -12 -59 -7 -79 8 -19 15 -19 15 0 30 27
20 39 19 64 -8z"/>
</g>
</svg>
