<svg width="30" height="30" viewBox="0 0 30 30" fill="none" xmlns="http://www.w3.org/2000/svg">
<path fill-rule="evenodd" clip-rule="evenodd" d="M17.7639 2H27.0139C27.7043 2 28.2639 2.55964 28.2639 3.25V12.5C28.2639 13.1904 27.7043 13.75 27.0139 13.75C26.3235 13.75 25.7639 13.1904 25.7639 12.5V6.26777L18.5841 13.4476C18.0959 13.9357 17.3045 13.9357 16.8163 13.4476C16.3282 12.9594 16.3282 12.168 16.8163 11.6798L23.9961 4.5H17.7639C17.0735 4.5 16.5139 3.94036 16.5139 3.25C16.5139 2.55964 17.0735 2 17.7639 2Z" fill="white"/>
<path fill-rule="evenodd" clip-rule="evenodd" d="M12.2363 28L2.98634 28C2.29598 28 1.73634 27.4404 1.73634 26.75L1.73634 17.5C1.73634 16.8096 2.29599 16.25 2.98634 16.25C3.6767 16.25 4.23634 16.8096 4.23634 17.5L4.23634 23.7322L11.4162 16.5524C11.9043 16.0643 12.6958 16.0643 13.1839 16.5524C13.6721 17.0406 13.6721 17.832 13.1839 18.3202L6.00411 25.5L12.2363 25.5C12.9267 25.5 13.4863 26.0596 13.4863 26.75C13.4863 27.4404 12.9267 28 12.2363 28Z" fill="white"/>
</svg>
