<svg width="30" height="30" viewBox="0 0 30 30" fill="none" xmlns="http://www.w3.org/2000/svg">
<path fill-rule="evenodd" clip-rule="evenodd" d="M16.7639 3H26.0139C26.7043 3 27.2639 3.55964 27.2639 4.25V13.5C27.2639 14.1904 26.7043 14.75 26.0139 14.75C25.3235 14.75 24.7639 14.1904 24.7639 13.5V7.26777L17.5841 14.4476C17.0959 14.9357 16.3045 14.9357 15.8163 14.4476C15.3282 13.9594 15.3282 13.168 15.8163 12.6798L22.9961 5.5H16.7639C16.0735 5.5 15.5139 4.94036 15.5139 4.25C15.5139 3.55964 16.0735 3 16.7639 3Z" fill="white"/>
<path fill-rule="evenodd" clip-rule="evenodd" d="M13.2363 27L3.98634 27C3.29598 27 2.73634 26.4404 2.73634 25.75L2.73634 16.5C2.73634 15.8096 3.29599 15.25 3.98634 15.25C4.6767 15.25 5.23634 15.8096 5.23634 16.5L5.23634 22.7322L12.4162 15.5524C12.9043 15.0643 13.6958 15.0643 14.1839 15.5524C14.6721 16.0406 14.6721 16.832 14.1839 17.3202L7.00411 24.5L13.2363 24.5C13.9267 24.5 14.4863 25.0596 14.4863 25.75C14.4863 26.4404 13.9267 27 13.2363 27Z" fill="white"/>
</svg>
