<svg width="36" height="30" viewBox="0 0 36 30" fill="none" xmlns="http://www.w3.org/2000/svg">
<path d="M6.51782 8.57644L4.4046 8.99959C3.83593 9.11326 3.29732 9.34459 2.82333 9.67872C2.34931 10.0129 1.95041 10.4424 1.65224 10.9399C0.916638 12.1662 0.528076 13.5694 0.528076 14.9994C0.528076 16.4292 0.916491 17.8321 1.65182 19.0582C1.94792 19.5522 2.34438 19.9836 2.82167 20.3201C3.29566 20.6542 3.83427 20.8855 4.40294 20.9992L6.88742 21.4967L10.1803 25.4463C11.0955 26.5452 11.8933 27.5031 12.5796 28.131C13.1957 28.6947 14.3509 29.5906 15.7767 29.0766L15.781 29.075C17.2054 28.5571 17.5204 27.1312 17.6331 26.3016C17.758 25.3831 17.7579 24.1416 17.7578 22.718V19.8164L14.4105 16.4691V22.5932C14.4105 23.727 14.4085 24.5655 14.3743 25.1942C13.9454 24.733 13.4065 24.0894 12.6811 23.2185L9.24871 19.1017C8.89538 18.678 8.40785 18.3877 7.86693 18.2791L5.05925 17.7169C4.94814 17.6947 4.8429 17.6495 4.75028 17.5842C4.66094 17.5213 4.58306 17.4378 4.52275 17.3371C4.09915 16.6309 3.87539 15.8229 3.87539 14.9994C3.87539 14.1759 4.09957 13.3672 4.52316 12.661C4.5814 12.5638 4.65933 12.4799 4.75194 12.4146C4.84455 12.3493 4.9498 12.3041 5.06091 12.282L7.86413 11.7207L7.8667 11.7201C8.31279 11.6313 8.72281 11.419 9.05141 11.11L6.51782 8.57644Z" fill="white"/>
<path d="M14.4039 5.81142C14.3988 5.4256 14.3899 5.09242 14.3741 4.80358C14.233 4.95536 14.08 5.12689 13.9123 5.3198L11.5403 2.9478C11.911 2.52852 12.2567 2.16219 12.5779 1.86823C13.1943 1.30432 14.3507 0.408024 15.777 0.924559C17.2037 1.44084 17.52 2.86865 17.6329 3.6981C17.758 4.61713 17.7579 5.85955 17.7578 7.28375V9.1653L14.4039 5.81142Z" fill="white"/>
<path d="M27.086 18.4935L24.3305 15.7381C24.359 15.4854 24.3729 15.2301 24.3719 14.9734C24.3652 13.2283 23.669 11.5566 22.435 10.3226C21.7814 9.66903 21.7814 8.60933 22.435 7.95571C23.0886 7.30209 24.1483 7.30207 24.8019 7.95566C26.6605 9.81422 27.7091 12.3321 27.7192 14.9606C27.7239 16.1785 27.5054 17.3744 27.086 18.4935Z" fill="white"/>
<path d="M32.8162 24.2237L30.4272 21.8347C31.8775 19.8501 32.668 17.4417 32.6583 14.9544C32.6464 11.8974 31.4266 8.96904 29.2648 6.80751C28.6112 6.15394 28.6111 5.09424 29.2647 4.4406C29.9183 3.78696 30.978 3.7869 31.6316 4.44047C34.418 7.22655 35.9902 11.0011 36.0056 14.9414C36.0188 18.3224 34.8849 21.5903 32.8162 24.2237Z" fill="white"/>
<path fill-rule="evenodd" clip-rule="evenodd" d="M4.05685 0.490203C4.71046 -0.163401 5.77016 -0.163401 6.42377 0.490203L33.0765 27.143C33.7301 27.7966 33.7301 28.8563 33.0765 29.5099C32.4229 30.1635 31.3632 30.1635 30.7096 29.5099L4.05685 2.85711C3.40325 2.20351 3.40325 1.14381 4.05685 0.490203Z" fill="white"/>
</svg>
