<svg width="30" height="30" viewBox="0 0 30 30" fill="none" xmlns="http://www.w3.org/2000/svg">
<path fill-rule="evenodd" clip-rule="evenodd" d="M25.9502 14.8137L16.7002 14.8137C16.0099 14.8137 15.4502 14.2541 15.4502 13.5637L15.4502 4.31372C15.4502 3.62336 16.0099 3.06372 16.7002 3.06372C17.3906 3.06372 17.9502 3.62336 17.9502 4.31372L17.9502 10.546L25.13 3.36613C25.6182 2.87797 26.4096 2.87797 26.8978 3.36613C27.386 3.85428 27.386 4.64574 26.8978 5.1339L19.718 12.3137L25.9502 12.3137C26.6406 12.3137 27.2002 12.8734 27.2002 13.5637C27.2002 14.2541 26.6406 14.8137 25.9502 14.8137Z" fill="white"/>
<path fill-rule="evenodd" clip-rule="evenodd" d="M4.04979 15.1863L13.2998 15.1863C13.9901 15.1863 14.5498 15.7459 14.5498 16.4363L14.5498 25.6863C14.5498 26.3766 13.9901 26.9363 13.2998 26.9363C12.6094 26.9363 12.0498 26.3766 12.0498 25.6863L12.0498 19.454L4.86997 26.6339C4.38181 27.122 3.59036 27.122 3.1022 26.6339C2.61405 26.1457 2.61405 25.3543 3.1022 24.8661L10.282 17.6863H4.04979C3.35944 17.6863 2.79979 17.1266 2.79979 16.4363C2.79979 15.7459 3.35944 15.1863 4.04979 15.1863Z" fill="white"/>
</svg>
