<svg width="27" height="30" viewBox="0 0 27 30" fill="none" xmlns="http://www.w3.org/2000/svg">
<path fill-rule="evenodd" clip-rule="evenodd" d="M19.5549 2C20.6595 2 21.5549 2.77604 21.5549 3.73333V26.2667C21.5549 27.224 20.6595 28 19.5549 28C18.4504 28 17.5549 27.224 17.5549 26.2667V3.73333C17.5549 2.77604 18.4504 2 19.5549 2Z" fill="white"/>
<path fill-rule="evenodd" clip-rule="evenodd" d="M7.08496 2C8.18953 2 9.08496 2.77604 9.08496 3.73333L9.08496 26.2667C9.08496 27.224 8.18953 28 7.08496 28C5.98039 28 5.08496 27.224 5.08496 26.2667L5.08496 3.73333C5.08496 2.77604 5.98039 2 7.08496 2Z" fill="white"/>
</svg>
