<svg width="27" height="31" viewBox="0 0 27 31" fill="none" xmlns="http://www.w3.org/2000/svg">
<path d="M22.7891 15.9871L3.9995 26.8353C3.96127 26.8574 3.93948 26.8586 3.92662 26.8584C3.90764 26.858 3.88029 26.8522 3.85091 26.8353C3.82153 26.8183 3.80282 26.7975 3.79305 26.7813C3.78643 26.7702 3.77661 26.7507 3.77661 26.7066L3.77661 5.0102C3.77661 4.96605 3.78643 4.94655 3.79305 4.93553C3.80283 4.91926 3.82153 4.89847 3.85091 4.88151C3.88029 4.86455 3.90764 4.85875 3.92662 4.85841C3.93948 4.85819 3.96127 4.85944 3.9995 4.88151L22.7891 15.7297C22.8274 15.7518 22.8393 15.77 22.8456 15.7813C22.8548 15.7979 22.8634 15.8245 22.8634 15.8584C22.8634 15.8923 22.8548 15.9189 22.8456 15.9355C22.8393 15.9468 22.8274 15.965 22.7891 15.9871Z" stroke="white" stroke-width="4" stroke-linejoin="round"/>
</svg>
