<svg width="36" height="31" viewBox="0 0 36 31" fill="none" xmlns="http://www.w3.org/2000/svg">
<path fill-rule="evenodd" clip-rule="evenodd" d="M12.5779 2.17047C13.1943 1.60657 14.3507 0.71027 15.777 1.2268C17.2037 1.74308 17.52 3.17089 17.6329 4.00035C17.758 4.9194 17.7579 6.16185 17.7578 7.58609V23.0202C17.7579 24.4438 17.758 25.6854 17.6331 26.6039C17.5204 27.4334 17.2054 28.8593 15.781 29.3773L15.7767 29.3788C14.3509 29.8929 13.1957 28.9969 12.5796 28.4332C11.8933 27.8053 11.0955 26.8474 10.1803 25.7486L6.88742 21.7989L4.40294 21.3014C3.83427 21.1878 3.29566 20.9564 2.82167 20.6223C2.34438 20.2859 1.94792 19.8544 1.65182 19.3605C0.916491 18.1343 0.528076 16.7314 0.528076 15.3016C0.528076 13.8716 0.916638 12.4684 1.65224 11.2421C1.95041 10.7447 2.34931 10.3151 2.82333 9.98096C3.29732 9.64683 3.83593 9.41551 4.4046 9.30183L6.89081 8.804L10.1757 4.85983C11.092 3.75888 11.8908 2.79919 12.5779 2.17047ZM12.6803 7.08319C13.4063 6.21091 13.9451 5.56719 14.3741 5.10582C14.4085 5.73518 14.4105 6.57502 14.4105 7.71119V22.8955C14.4105 24.0293 14.4085 24.8678 14.3743 25.4965C13.9454 25.0353 13.4065 24.3916 12.6811 23.5208L9.24871 19.4039C8.89538 18.9802 8.40785 18.69 7.86693 18.5813L5.05925 18.0191C4.94814 17.9969 4.8429 17.9518 4.75028 17.8865C4.66094 17.8235 4.58306 17.74 4.52275 17.6394C4.09915 16.9332 3.87539 16.1252 3.87539 15.3017C3.87539 14.4782 4.09957 13.6695 4.52316 12.9633C4.5814 12.8661 4.65933 12.7822 4.75194 12.7169C4.84455 12.6516 4.9498 12.6064 5.06091 12.5842L7.86413 12.0229L7.8667 12.0224C8.40853 11.9145 8.89714 11.6244 9.25128 11.2003L12.6803 7.08319Z" fill="white"/>
<path d="M29.2647 4.74285C29.9183 4.0892 30.978 4.08915 31.6316 4.74271C34.418 7.5288 35.9902 11.3033 36.0056 15.2436C36.021 19.1839 34.4783 22.9706 31.7137 25.7784C31.0652 26.437 30.0055 26.4452 29.3469 25.7967C28.6882 25.1482 28.68 24.0885 29.3285 23.4299C31.4734 21.2515 32.6702 18.3137 32.6583 15.2567C32.6464 12.1997 31.4266 9.27129 29.2648 7.10976C28.6112 6.45619 28.6111 5.39649 29.2647 4.74285Z" fill="white"/>
<path d="M24.8019 8.25791C24.1483 7.60432 23.0886 7.60434 22.435 8.25796C21.7814 8.91157 21.7814 9.97128 22.435 10.6249C23.669 11.8588 24.3652 13.5305 24.3719 15.2756C24.3786 17.0207 23.6952 18.6977 22.4707 19.9411C21.8221 20.5997 21.8302 21.6594 22.4888 22.308C23.1474 22.9565 24.2071 22.9484 24.8557 22.2899C26.7 20.4171 27.7293 17.8912 27.7192 15.2628C27.7091 12.6344 26.6605 10.1165 24.8019 8.25791Z" fill="white"/>
</svg>
